<svg id="LMS_University" data-name="LMS University" xmlns="http://www.w3.org/2000/svg" xmlns:xlink="http://www.w3.org/1999/xlink" viewBox="0 0 1009.8 1091.55"><defs><style>.cls-1{fill:#0b3889;}.cls-12,.cls-13,.cls-14,.cls-15,.cls-2{fill:#1b92d3;}.cls-3{fill:#0f40a7;}.cls-4{opacity:0.35;fill:url(#linear-gradient);}.cls-10,.cls-5,.cls-6{fill:#063487;}.cls-6{opacity:0.23;}.cls-7{fill:#00a8f2;}.cls-8{fill:#c4dbf2;}.cls-9{fill:#0b9fd3;}.cls-10{opacity:0.15;}.cls-11{fill:#fff;}.cls-12{opacity:0.2;}.cls-13{opacity:0.4;}.cls-14{opacity:0.6;}.cls-15{opacity:0.8;}.cls-16,.cls-17{fill:none;stroke-linecap:round;stroke-linejoin:round;}.cls-16{stroke:#fff;stroke-width:5px;}.cls-17{stroke:#0f40a7;stroke-width:3px;}</style><linearGradient id="linear-gradient" x1="1432.88" y1="1069.8" x2="1432.88" y2="1178.91" gradientUnits="userSpaceOnUse"><stop offset="0.5" stop-color="#000086" stop-opacity="0"/><stop offset="0.63" stop-color="#000082" stop-opacity="0.06"/><stop offset="0.78" stop-color="#007" stop-opacity="0.22"/><stop offset="0.94" stop-color="#000064" stop-opacity="0.49"/><stop offset="1" stop-color="#00005c" stop-opacity="0.6"/></linearGradient></defs><title>expensive-laptop</title><g id="Computer"><path class="cls-1" d="M1669.89,1291.63l-553-181.35c-6.27-2.06-6.76-7.9-1.08-13l280.72-251.39c5.68-5.08,15.45-7.56,21.73-5.5l553,181.35c6.27,2.06,6.76,7.9,1.08,13l-280.72,251.39C1685.94,1291.21,1676.16,1293.69,1669.89,1291.63Z" transform="translate(-1087.26 -200.81)"/><polygon class="cls-1" points="24.56 904.5 24.57 894.49 888.8 816.2 889.04 826.74 802.8 856.21 24.56 904.5"/><path class="cls-2" d="M1669.89,1282.63l-553-181.35c-6.27-2.06-6.76-7.9-1.08-13l280.72-251.39c5.68-5.08,15.45-7.56,21.73-5.5l553,181.35c6.27,2.06,6.76,7.9,1.08,13l-280.72,251.39C1685.94,1282.21,1676.16,1284.69,1669.89,1282.63Z" transform="translate(-1087.26 -200.81)"/><polygon class="cls-1" points="369.8 150.76 386.8 138.14 898.84 794.86 887.97 803.63 505.8 531 369.8 150.76"/><path class="cls-1" d="M1974.2,998.15,1433.06,817.7c-7.67-2.5-13.24-11.24-12.37-19.44L1467.91,349c.86-8.2,7.84-12.87,15.51-10.37l546.13,177.45c7.67,2.49,13.24,11.23,12.38,19.43l-52.22,452.27C1988.85,996,1981.87,1000.64,1974.2,998.15Z" transform="translate(-1087.26 -200.81)"/><path class="cls-3" d="M1965.2,1005.15,1419.06,827.7c-7.67-2.5-13.24-11.24-12.37-19.44L1453.91,359c.86-8.2,7.84-12.87,15.51-10.37l546.13,177.45c7.67,2.49,13.24,11.23,12.38,19.43l-47.22,449.27C1979.85,1003,1972.87,1007.64,1965.2,1005.15Z" transform="translate(-1087.26 -200.81)"/><path class="cls-1" d="M1306.09,1129.94a10.54,10.54,0,0,1,3.08-4.4l58.53-52.93c4.88-4.42,13.32-6.6,18.74-4.85L1533,1115a7.23,7.23,0,0,1,3.07,1.82c1-3-.42-5.64-4.07-6.82l-146.6-47.27c-5.42-1.75-13.86.43-18.74,4.85l-58.53,52.93C1304.48,1123.88,1303.84,1127.58,1306.09,1129.94Z" transform="translate(-1087.26 -200.81)"/><path class="cls-1" d="M1283.76,1001.55l146.79-132.16c5.86-5.28,16-7.87,22.45-5.76l446.35,145a9.22,9.22,0,0,1,3,1.58c.8-3.31-.9-6.24-5-7.58L1451,857.63c-6.49-2.11-16.59.48-22.45,5.76L1281.76,995.55c-4.75,4.28-5.3,9.07-1.87,11.85A12.06,12.06,0,0,1,1283.76,1001.55Z" transform="translate(-1087.26 -200.81)"/><polygon class="cls-1" points="359.06 622.2 339.8 644 844.8 809.43 865.85 785.86 359.06 622.2"/><path class="cls-1" d="M1835,1034.51,1426.47,901.76c-1.19-.39-1.29-1.5-.21-2.47l19.13-17.23a4.78,4.78,0,0,1,4.13-1.06l408.55,132.75c1.19.39,1.29,1.5.21,2.47l-19.14,17.23A4.76,4.76,0,0,1,1835,1034.51Z" transform="translate(-1087.26 -200.81)"/><path class="cls-1" d="M1807,1062,1398.47,929.27c-1.19-.38-1.29-1.49-.21-2.46l19.13-17.24a4.78,4.78,0,0,1,4.13-1.05l408.55,132.74c1.19.39,1.29,1.5.21,2.47L1811.14,1061A4.72,4.72,0,0,1,1807,1062Z" transform="translate(-1087.26 -200.81)"/><path class="cls-1" d="M1777.88,1090,1369.33,957.24c-1.2-.39-1.29-1.5-.21-2.47l19.13-17.23a4.78,4.78,0,0,1,4.13-1.06l408.55,132.75c1.19.39,1.29,1.5.21,2.47L1782,1088.93A4.76,4.76,0,0,1,1777.88,1090Z" transform="translate(-1087.26 -200.81)"/><path class="cls-1" d="M1746.88,1118.17,1338.33,985.42c-1.2-.39-1.29-1.5-.21-2.46l19.13-17.24a4.75,4.75,0,0,1,4.13-1.05l408.55,132.74c1.19.39,1.29,1.5.21,2.47L1751,1117.11A4.72,4.72,0,0,1,1746.88,1118.17Z" transform="translate(-1087.26 -200.81)"/><path class="cls-4" d="M1454.93,1178.35l-120.53-39.16c-4.94-1.6-5.34-6.2-.88-10.21l60.23-54.24c4.46-4,12.14-6,17.09-4.38l120.53,39.15c4.94,1.61,5.33,6.21.87,10.22L1472,1174C1467.56,1178,1459.87,1180,1454.93,1178.35Z" transform="translate(-1087.26 -200.81)"/></g><g id="Layer_301" data-name="Layer 301"><path class="cls-5" d="M1999.91,895.22l10.63-99.5-31.22-11.45a3.65,3.65,0,0,0-4.91,3.28l-8.12,77.25L1962,901.85,1979,887.14Z" transform="translate(-1087.26 -200.81)"/><path class="cls-5" d="M1937.36,641.55l-302.42-98.26c-6.28-2-12,1.78-12.69,8.49l-21,200L1590,847.66l44.19-38.08,209.94,68.21L1900,895.66s21.6,8.25,24.34-17.87h0l3.61-34.27,19.55-186.06C1948.2,650.75,1943.64,643.59,1937.36,641.55Z" transform="translate(-1087.26 -200.81)"/><path class="cls-5" d="M1881.22,468.71l-114.43-37.18a3.58,3.58,0,0,0-4.81,3.22l-8,75.66-4.25,36.29,16.72-14.41,79.44,25.81,21.14,6.77s8.17,3.12,9.21-6.77h0l1.36-13,7.4-70.41A6,6,0,0,0,1881.22,468.71Z" transform="translate(-1087.26 -200.81)"/><path class="cls-5" d="M1716.4,487.51l-222.6-72.33c-4.62-1.5-8.83,1.31-9.34,6.25L1466.4,593.17a11.56,11.56,0,0,0,7.46,11.71L1674.37,670c11.6,15.12,27.66,36.85,27.66,36.85L1705.8,671l3.66-34.8,14.39-136.94A11.54,11.54,0,0,0,1716.4,487.51Z" transform="translate(-1087.26 -200.81)"/><path class="cls-5" d="M2040.43,534.62l-121-40c-3.77-1.23-7.2,1.07-7.62,5.1l-12.62,120-6.74,57.56L1919,654.48l104.93,34.74Z" transform="translate(-1087.26 -200.81)"/><path class="cls-5" d="M1512.47,436.76l-65.73-21.36-26.15,258,34.78,11.3c15.76,20.54,37.58,50.06,37.58,50.06l5.13-48.81,5-47.27,19.56-186.06C1523.3,446,1518.75,438.8,1512.47,436.76Z" transform="translate(-1087.26 -200.81)"/><path class="cls-2" d="M1927.36,601.55l-302.42-98.26c-6.28-2-12,1.78-12.69,8.49l-21,200L1580,807.66l44.19-38.08,209.94,68.21L1890,855.66s21.6,8.25,24.34-17.87h0l3.61-34.27,19.55-186.06C1938.2,610.75,1933.64,603.59,1927.36,601.55Z" transform="translate(-1087.26 -200.81)"/><path class="cls-6" d="M1626.07,503.31c-6.54-2.12-12.49,1.86-13.22,8.85l-15.09,143.6,79.8,25.93c12.08,15.75,28.81,38.38,28.81,38.38l3.93-37.41,3.81-36.25,11.64-110.71Z" transform="translate(-1087.26 -200.81)"/><path class="cls-6" d="M2041.43,534.62l-122-40c-3.77-1.23-7.2,1.07-7.62,5.1l-12.62,120-6.74,57.56L1919,654.48l104.93,34.74Z" transform="translate(-1087.26 -200.81)"/><path class="cls-7" d="M2090.94,513.63l-181.5-59c-3.77-1.23-7.2,1.07-7.62,5.1l-12.62,120-6.74,57.56L1909,614.48l126,40.93,33.53,10.73s13,5,14.61-10.73h0l2.16-20.57L2097,523.18A9.42,9.42,0,0,0,2090.94,513.63Z" transform="translate(-1087.26 -200.81)"/><path class="cls-8" d="M2086.14,782.23l-116.82-38a3.65,3.65,0,0,0-4.91,3.28l-8.12,77.25L1952,861.85,1969,847.14l81.1,26.35,21.58,6.9s8.35,3.19,9.41-6.9h0l1.39-13.24,7.55-71.87A6.07,6.07,0,0,0,2086.14,782.23Z" transform="translate(-1087.26 -200.81)"/><path class="cls-2" d="M1871.22,428.71l-114.43-37.18a3.58,3.58,0,0,0-4.81,3.22l-8,75.66-4.25,36.29,16.72-14.41,79.44,25.81,21.14,6.77s8.17,3.12,9.21-6.77h0l1.36-13,7.4-70.41A6,6,0,0,0,1871.22,428.71Z" transform="translate(-1087.26 -200.81)"/><path class="cls-8" d="M1981.85,357.8l-57.22-18.59a1.78,1.78,0,0,0-2.4,1.6l-4,37.84-2.12,18.14,8.36-7.2,39.72,12.9,10.57,3.38s4.08,1.57,4.6-3.38h0l.69-6.48,3.7-35.2A3,3,0,0,0,1981.85,357.8Z" transform="translate(-1087.26 -200.81)"/><path class="cls-2" d="M1427,346.27,1124.55,248c-6.27-2-12,1.78-12.69,8.49l-24.53,233.33c-.7,6.71,3.86,13.87,10.13,15.91l272.42,88.51c15.76,20.54,37.57,50.06,37.57,50.06l5.13-48.8,5-47.28,19.55-186C1437.81,355.47,1433.25,348.31,1427,346.27Z" transform="translate(-1087.26 -200.81)"/><path class="cls-9" d="M1387.52,558.82l-101.21-33.56a9.77,9.77,0,0,1-6.25-10L1298.55,342c.46-4.18,4-6.55,7.94-5.25l101.21,33.56a9.78,9.78,0,0,1,6.26,10l-18.49,173.36C1395,557.76,1391.43,560.12,1387.52,558.82Z" transform="translate(-1087.26 -200.81)"/><path class="cls-8" d="M1706.4,447.51l-222.6-72.33c-4.62-1.5-8.83,1.31-9.34,6.25L1456.4,553.17a11.56,11.56,0,0,0,7.46,11.71L1664.37,630c11.6,15.12,27.66,36.85,27.66,36.85L1695.8,631l3.66-34.8,14.39-136.94A11.54,11.54,0,0,0,1706.4,447.51Z" transform="translate(-1087.26 -200.81)"/><path class="cls-2" d="M1734.69,240.43,1613.42,201a3.78,3.78,0,0,0-5.09,3.4L1598.49,298a6.3,6.3,0,0,0,4.07,6.38l109.23,35.49c6.32,8.24,15.07,20.07,15.07,20.07l2.06-19.57,2-18.95,7.84-74.61A6.31,6.31,0,0,0,1734.69,240.43Z" transform="translate(-1087.26 -200.81)"/><path class="cls-10" d="M1483.8,375.18c-4.62-1.5-8.83,1.31-9.34,6.25l-8.14,77.45,54.34,17.65c9.42,12.28,22.45,29.91,22.45,29.91l3.06-29.15,3-28.24,5.35-50.9Z" transform="translate(-1087.26 -200.81)"/><path class="cls-6" d="M1427,346.27l-49.08-15.95-10.73,102a9.37,9.37,0,0,0,6,9.5l53.69,17.44,10.2-97.12C1437.81,355.47,1433.25,348.31,1427,346.27Z" transform="translate(-1087.26 -200.81)"/><path class="cls-7" d="M1540.3,296.36l-180.66-58.7c-3.75-1.22-7.16,1.07-7.58,5.07l-14.65,139.39a9.38,9.38,0,0,0,6,9.5l162.73,52.87c9.41,12.27,22.44,29.91,22.44,29.91l3.07-29.16,3-28.24,11.68-111.14A9.37,9.37,0,0,0,1540.3,296.36Z" transform="translate(-1087.26 -200.81)"/></g><polygon class="cls-11" points="732.96 262.27 709.97 267.79 713.6 241.47 732.96 262.27"/><polygon class="cls-3" points="867.86 174.21 856.37 176.97 858.18 163.81 867.86 174.21"/><path class="cls-9" d="M1257.13,437l-125.31-41.56a12.1,12.1,0,0,1-7.74-12.32l10.51-94.54c.57-5.17,5-8.1,9.84-6.49l125.31,41.55a12.1,12.1,0,0,1,7.74,12.32L1267,430.47C1266.4,435.65,1262,438.57,1257.13,437Z" transform="translate(-1087.26 -200.81)"/><path class="cls-3" d="M1213.47,335.78l-27.53-9.29a3,3,0,0,0-4,2.62l-1.22,10.42L1179.5,350l-3.64,31.26,18.45-3.81,16.21,15.5,3.64-31.25,1.21-10.43,1.22-10.43A4.92,4.92,0,0,0,1213.47,335.78Z" transform="translate(-1087.26 -200.81)"/><path class="cls-7" d="M1673.08,259.67l-14.9-5a1.61,1.61,0,0,0-2.18,1.42l-.65,5.65-.66,5.64-2,16.93,10-2.07,8.77,8.4,2-16.93.65-5.64.66-5.65A2.67,2.67,0,0,0,1673.08,259.67Z" transform="translate(-1087.26 -200.81)"/><path class="cls-2" d="M1620.75,499.24a58.59,58.59,0,0,0-3.61-9.38l-4.13,1.81a52.24,52.24,0,0,1,3.12,8.06Z" transform="translate(-1087.26 -200.81)"/><path class="cls-2" d="M1622.83,511.18a53.26,53.26,0,0,0-1.38-9.3l-4.69.18a47.56,47.56,0,0,1,1.27,8.2Z" transform="translate(-1087.26 -200.81)"/><g id="Layer_296" data-name="Layer 296"><path class="cls-2" d="M1617.7,519.2l4.72,1.91c.1-.67.18-1.34.25-2a49.86,49.86,0,0,0,.24-6.11l-4.8-1a45.51,45.51,0,0,1-.2,5.6C1617.85,518.12,1617.78,518.66,1617.7,519.2Z" transform="translate(-1087.26 -200.81)"/><path class="cls-2" d="M1617.5,520.49c-3.49,19.94-21.07,30.89-40.53,24.64-20.38-6.56-35.11-29.52-32.88-51.3s20.54-34.12,40.93-27.57h0l.52-5.09h0c-23-7.4-43.72,6.53-46.22,31.13s14.12,50.52,37.13,57.92c22,7.07,41.85-5.32,45.78-27.87Z" transform="translate(-1087.26 -200.81)"/><g id="Layer_295" data-name="Layer 295"><polygon class="cls-12" points="594.26 315.07 577.23 309.4 577.69 306.13 594.6 311.76 594.26 315.07"/><polygon class="cls-13" points="593.07 327.02 576.04 321.35 576.5 318.08 593.41 323.71 593.07 327.02"/><polygon class="cls-14" points="591.61 338.28 574.59 332.61 575.04 329.33 591.95 334.97 591.61 338.28"/><polygon class="cls-15" points="590.15 349.53 573.13 343.86 573.58 340.59 590.5 346.22 590.15 349.53"/><polygon class="cls-2" points="589.23 360.73 572.21 355.06 572.66 351.79 589.57 357.42 589.23 360.73"/></g></g><g id="Layer_297" data-name="Layer 297"><path class="cls-11" d="M1749.35,701.72h0a8.46,8.46,0,0,1-5.7-8.42l2.88-37.27a5.08,5.08,0,0,1,6.71-4.76h0a8.45,8.45,0,0,1,5.69,8.42L1756.06,697A5.09,5.09,0,0,1,1749.35,701.72Z" transform="translate(-1087.26 -200.81)"/><path class="cls-11" d="M1774.32,709.07h0a8.46,8.46,0,0,1-5.7-8.42l2.88-37.26a5.09,5.09,0,0,1,6.71-4.77h0a8.47,8.47,0,0,1,5.7,8.42L1781,704.31A5.09,5.09,0,0,1,1774.32,709.07Z" transform="translate(-1087.26 -200.81)"/><rect class="cls-3" x="1618.82" y="769.31" width="267.62" height="8.13" rx="4.06" ry="4.06" transform="translate(-775.21 -690.19) rotate(17.43)"/><rect class="cls-11" x="1705.5" y="671.55" width="8.13" height="176.62" rx="4.06" ry="4.06" transform="translate(-614.66 1962.59) rotate(-72.57)"/></g><g id="Layer_298" data-name="Layer 298"><path class="cls-3" d="M2040.36,802l-44-13.88a4.86,4.86,0,0,1-3.18-4.89h0a2.92,2.92,0,0,1,3.9-2.66l44,13.88a4.84,4.84,0,0,1,3.18,4.89h0A2.92,2.92,0,0,1,2040.36,802Z" transform="translate(-1087.26 -200.81)"/><path class="cls-3" d="M2047.33,831.43l-53.55-16.88a4.86,4.86,0,0,1-3.18-4.89h0a2.92,2.92,0,0,1,3.9-2.66l53.56,16.88a4.84,4.84,0,0,1,3.17,4.89h0A2.92,2.92,0,0,1,2047.33,831.43Z" transform="translate(-1087.26 -200.81)"/><path class="cls-3" d="M2031.63,812.84l-36.86-11.62a4.45,4.45,0,0,1-2.92-4.5l.06-.6a2.69,2.69,0,0,1,3.59-2.45l36.86,11.62a4.47,4.47,0,0,1,2.92,4.51l0,.59A2.7,2.7,0,0,1,2031.63,812.84Z" transform="translate(-1087.26 -200.81)"/><path class="cls-3" d="M2029.21,839l-36.86-11.62a4.45,4.45,0,0,1-2.92-4.5l0-.6a2.7,2.7,0,0,1,3.6-2.45l36.86,11.62a4.47,4.47,0,0,1,2.92,4.51l-.06.59A2.68,2.68,0,0,1,2029.21,839Z" transform="translate(-1087.26 -200.81)"/></g><g id="Layer_299" data-name="Layer 299"><polyline class="cls-16" points="860.05 321.4 896.52 390.97 954.75 385.53"/><ellipse class="cls-3" cx="1947.31" cy="522.21" rx="12.14" ry="15.01" transform="translate(-1154.7 395.78) rotate(-17.13)"/><ellipse class="cls-3" cx="1986.61" cy="591.77" rx="12.14" ry="15.01" transform="translate(-1173.44 410.44) rotate(-17.13)"/><ellipse class="cls-3" cx="2042.02" cy="585.57" rx="12.14" ry="15.01" transform="translate(-1169.15 426.48) rotate(-17.13)"/></g><g id="Layer_300" data-name="Layer 300"><path class="cls-11" d="M1390.32,303.58l-13.62-4.36a9.82,9.82,0,0,1-6.37-9.92l1.47-14.54c.43-4.2,4-6.6,7.92-5.34l13.61,4.36a9.8,9.8,0,0,1,6.37,9.92l-1.47,14.54C1397.81,302.44,1394.24,304.84,1390.32,303.58Z" transform="translate(-1087.26 -200.81)"/><path class="cls-11" d="M1424.84,314.65l-13.61-4.36a9.81,9.81,0,0,1-6.37-9.92l1.47-14.54c.42-4.2,4-6.6,7.91-5.34l13.62,4.36a9.81,9.81,0,0,1,6.37,9.92l-1.47,14.54C1432.33,313.51,1428.77,315.91,1424.84,314.65Z" transform="translate(-1087.26 -200.81)"/><path class="cls-11" d="M1386.71,339.19l-13.61-4.37a9.8,9.8,0,0,1-6.37-9.92l1.47-14.54c.42-4.19,4-6.6,7.92-5.34l13.61,4.37a9.81,9.81,0,0,1,6.37,9.92l-1.47,14.54C1394.2,338.05,1390.64,340.45,1386.71,339.19Z" transform="translate(-1087.26 -200.81)"/><path class="cls-11" d="M1383.05,375.44l-13.62-4.36a9.82,9.82,0,0,1-6.37-9.92l1.47-14.54c.43-4.2,4-6.6,7.92-5.34l13.61,4.36a9.8,9.8,0,0,1,6.37,9.92L1391,370.1C1390.54,374.3,1387,376.7,1383.05,375.44Z" transform="translate(-1087.26 -200.81)"/><path class="cls-11" d="M1421.24,350.26l-13.61-4.37a9.82,9.82,0,0,1-6.38-9.92l1.48-14.54c.42-4.19,4-6.6,7.91-5.34l13.61,4.37a9.82,9.82,0,0,1,6.38,9.92l-1.48,14.54C1428.73,349.12,1425.17,351.52,1421.24,350.26Z" transform="translate(-1087.26 -200.81)"/><path class="cls-11" d="M1459.37,325.72l-13.62-4.36a9.82,9.82,0,0,1-6.37-9.92l1.47-14.54c.43-4.2,4-6.6,7.92-5.34l13.61,4.36a9.8,9.8,0,0,1,6.37,9.92l-1.47,14.54C1466.86,324.58,1463.3,327,1459.37,325.72Z" transform="translate(-1087.26 -200.81)"/></g><g id="Layer_302" data-name="Layer 302"><ellipse class="cls-3" cx="1124.82" cy="423.73" rx="3.34" ry="4.13" transform="translate(-1162.16 149.21) rotate(-17.13)"/><line class="cls-17" x1="48.23" y1="225.75" x2="174.96" y2="266.43"/><ellipse class="cls-3" cx="1121.64" cy="447.51" rx="3.34" ry="4.13" transform="translate(-1169.31 149.33) rotate(-17.13)"/><line class="cls-17" x1="45.04" y1="249.54" x2="156.44" y2="285.3"/><ellipse class="cls-3" cx="1118.79" cy="471.05" rx="3.34" ry="4.13" transform="translate(-1176.37 149.53) rotate(-17.13)"/><line class="cls-17" x1="42.2" y1="273.08" x2="162.57" y2="311.71"/></g></svg>